<?xml version="1.0" ?><!DOCTYPE svg  PUBLIC '-//W3C//DTD SVG 1.1//EN'  'http://www.w3.org/Graphics/SVG/1.1/DTD/svg11.dtd'><svg height="140" style="enable-background:new 0 0 512 512;" version="1.1" viewBox="0 0 512 512" width="340px" xml:space="preserve" xmlns="http://www.w3.org/2000/svg" xmlns:xlink="http://www.w3.org/1999/xlink"><g id="_x31_98_x2C__Binary_x2C__code_x2C__coding_x2C__data_x2C__document"><g><path d="M379.45,138.092h75.335L379.45,62.759V138.092z M460.755,146.535h-85.526    c-2.316,0-4.223-1.889-4.223-4.222V56.787h-2.196l-242.507-0.035c0,129.354,0,258.708,0,388.062h334.452V146.535z     M117.859,420.721V52.565v-0.104v-0.103l0,0l0.018-0.104l0,0l0.018-0.103l0,0l0.07-0.446l0,0c0.375-1.922,2.074-3.363,4.117-3.363    l242.012,0.034l-0.464-7.997h-8.324H103.238c0,126.78,0,253.561,0,380.34H117.859z M165.704,101.197    c3.018-4.152,7.342-6.762,12.199-6.762c4.857,0,9.163,2.609,12.202,6.762c2.727,3.81,4.443,8.957,4.443,14.553    c0,5.456-1.628,10.467-4.257,14.242l-0.186,0.309c-3.039,4.152-7.345,6.727-12.202,6.727c-4.857,0-9.181-2.574-12.199-6.727    c-2.748-3.809-4.464-8.957-4.464-14.551c0-5.458,1.632-10.503,4.257-14.244L165.704,101.197z M177.903,102.879    c-2.008,0-3.931,1.27-5.387,3.261l-0.172,0.206c-1.632,2.367-2.66,5.697-2.66,9.404c0,3.809,1.081,7.207,2.814,9.609    c1.474,1.99,3.397,3.226,5.405,3.226c2.007,0,3.931-1.235,5.373-3.226l0.168-0.24c1.649-2.369,2.66-5.663,2.66-9.369    c0-3.845-1.081-7.242-2.815-9.61C181.834,104.148,179.911,102.879,177.903,102.879z M140.923,98.555    c0-2.334,1.888-4.222,4.205-4.222c2.334,0,4.222,1.888,4.222,4.222v34.389c0,2.334-1.888,4.222-4.222,4.222    c-2.316,0-4.205-1.888-4.205-4.222V98.555z M226.468,101.197c3.036-4.152,7.345-6.762,12.199-6.762    c4.84,0,9.164,2.609,12.185,6.762c2.745,3.81,4.46,8.957,4.46,14.553c0,5.456-1.628,10.501-4.253,14.242l-0.207,0.309    c-3.021,4.152-7.345,6.727-12.185,6.727c-4.854,0-9.163-2.574-12.199-6.727c-2.748-3.809-4.447-8.957-4.447-14.551    c0-5.458,1.614-10.503,4.257-14.244L226.468,101.197z M238.667,102.879c-2.007,0-3.927,1.27-5.387,3.261l-0.172,0.206    c-1.646,2.367-2.643,5.697-2.643,9.404c0,3.809,1.063,7.207,2.814,9.609c1.46,1.99,3.38,3.226,5.387,3.226    s3.913-1.235,5.373-3.226l0.172-0.24c1.646-2.369,2.66-5.663,2.66-9.369c0-3.845-1.081-7.242-2.814-9.61    C242.58,104.148,240.674,102.879,238.667,102.879z M201.669,98.555c0-2.334,1.888-4.222,4.222-4.222    c2.333,0,4.222,1.888,4.222,4.222v34.389c0,2.334-1.888,4.222-4.222,4.222c-2.334,0-4.222-1.888-4.222-4.222V98.555z     M287.23,101.197c3.04-4.152,7.346-6.762,12.203-6.762c4.836,0,9.146,2.609,12.182,6.762c2.748,3.775,4.464,8.957,4.464,14.553    c0,5.594-1.716,10.742-4.464,14.551c-3.036,4.152-7.346,6.727-12.182,6.727c-4.857,0-9.163-2.574-12.203-6.727    c-2.744-3.809-4.442-8.957-4.442-14.551c0-5.458,1.61-10.503,4.235-14.244L287.23,101.197z M299.434,102.879    c-2.008,0-3.931,1.27-5.391,3.261l-0.172,0.206c-1.629,2.367-2.66,5.697-2.66,9.404c0,3.809,1.084,7.207,2.814,9.609    c1.478,1.99,3.4,3.226,5.408,3.226c2.007,0,3.927-1.235,5.387-3.226c1.751-2.402,2.814-5.801,2.814-9.609    c0-3.845-1.081-7.242-2.814-9.61C303.36,104.148,301.44,102.879,299.434,102.879z M262.437,98.555    c0-2.334,1.901-4.222,4.218-4.222c2.334,0,4.223,1.888,4.223,4.222v34.389c0,2.334-1.889,4.222-4.223,4.222    c-2.316,0-4.218-1.888-4.218-4.222V98.555z M323.2,98.555c0-2.334,1.905-4.222,4.222-4.222c2.334,0,4.219,1.888,4.219,4.222    v34.389c0,2.334-1.885,4.222-4.219,4.222c-2.316,0-4.222-1.888-4.222-4.222V98.555z M165.704,169.529    c3.018-4.152,7.342-6.761,12.199-6.761c4.857,0,9.163,2.608,12.202,6.761c2.727,3.81,4.443,8.957,4.443,14.552    c0,5.458-1.628,10.468-4.257,14.243l-0.186,0.274c-3.039,4.187-7.345,6.761-12.202,6.761c-4.857,0-9.181-2.574-12.199-6.761    c-2.748-3.774-4.464-8.923-4.464-14.518c0-5.457,1.632-10.501,4.257-14.243L165.704,169.529z M177.903,171.211    c-2.008,0-3.931,1.27-5.387,3.261l-0.172,0.206c-1.632,2.367-2.66,5.697-2.66,9.403c0,3.81,1.081,7.208,2.814,9.61    c1.474,1.99,3.397,3.226,5.405,3.226c2.007,0,3.931-1.235,5.373-3.226l0.168-0.24c1.649-2.369,2.66-5.663,2.66-9.37    c0-3.844-1.081-7.241-2.815-9.609C181.834,172.48,179.911,171.211,177.903,171.211z M140.923,166.887    c0-2.334,1.888-4.222,4.205-4.222c2.334,0,4.222,1.888,4.222,4.222v34.389c0,2.334-1.888,4.223-4.222,4.223    c-2.316,0-4.205-1.889-4.205-4.223V166.887z M226.468,169.529c3.036-4.152,7.345-6.761,12.199-6.761    c4.84,0,9.164,2.608,12.185,6.761c2.745,3.81,4.46,8.957,4.46,14.552c0,5.458-1.628,10.503-4.253,14.243l-0.207,0.309    c-3.021,4.152-7.345,6.727-12.185,6.727c-4.854,0-9.163-2.574-12.199-6.761c-2.748-3.774-4.447-8.923-4.447-14.518    c0-5.457,1.614-10.501,4.257-14.243L226.468,169.529z M238.667,171.211c-2.007,0-3.927,1.27-5.387,3.261l-0.172,0.206    c-1.646,2.367-2.643,5.697-2.643,9.403c0,3.81,1.063,7.208,2.814,9.61c1.46,1.99,3.38,3.226,5.387,3.226s3.913-1.235,5.373-3.226    l0.172-0.24c1.646-2.369,2.66-5.663,2.66-9.37c0-3.844-1.081-7.241-2.814-9.609C242.58,172.48,240.674,171.211,238.667,171.211z     M201.669,166.887c0-2.334,1.888-4.222,4.222-4.222c2.333,0,4.222,1.888,4.222,4.222v34.389c0,2.334-1.888,4.223-4.222,4.223    c-2.334,0-4.222-1.889-4.222-4.223V166.887z M287.23,169.529c3.04-4.152,7.346-6.761,12.203-6.761    c4.836,0,9.146,2.608,12.182,6.761c2.748,3.775,4.464,8.957,4.464,14.552s-1.716,10.743-4.464,14.518    c-3.036,4.187-7.346,6.761-12.182,6.761c-4.857,0-9.163-2.574-12.203-6.761c-2.744-3.774-4.442-8.923-4.442-14.518    c0-5.457,1.61-10.501,4.235-14.243L287.23,169.529z M299.434,171.211c-2.008,0-3.931,1.27-5.391,3.261l-0.172,0.206    c-1.629,2.367-2.66,5.697-2.66,9.403c0,3.81,1.084,7.208,2.814,9.61c1.478,1.99,3.4,3.226,5.408,3.226    c2.007,0,3.927-1.235,5.387-3.226c1.751-2.402,2.814-5.801,2.814-9.61c0-3.844-1.081-7.241-2.814-9.609    C303.36,172.48,301.44,171.211,299.434,171.211z M262.437,166.887c0-2.334,1.901-4.222,4.218-4.222    c2.334,0,4.223,1.888,4.223,4.222v34.389c0,2.334-1.889,4.223-4.223,4.223c-2.316,0-4.218-1.889-4.218-4.223V166.887z     M348.012,169.529c3.039-4.152,7.346-6.761,12.186-6.761c4.857,0,9.163,2.608,12.185,6.761c2.745,3.81,4.461,8.957,4.461,14.552    c0,5.458-1.632,10.468-4.257,14.243l-0.204,0.274c-3.021,4.187-7.327,6.761-12.185,6.761c-4.84,0-9.146-2.574-12.186-6.761    c-2.762-3.774-4.46-8.923-4.46-14.518S345.25,173.305,348.012,169.529z M360.197,171.211c-2.025,0-3.948,1.27-5.404,3.261    c-1.734,2.368-2.814,5.766-2.814,9.609c0,3.81,1.08,7.208,2.814,9.61c1.456,1.99,3.379,3.226,5.404,3.226    c2.008,0,3.931-1.235,5.369-3.226l0.189-0.24c1.633-2.369,2.643-5.663,2.643-9.37c0-3.844-1.08-7.241-2.814-9.609    C364.128,172.48,362.205,171.211,360.197,171.211z M323.2,166.887c0-2.334,1.905-4.222,4.222-4.222    c2.334,0,4.219,1.888,4.219,4.222v34.389c0,2.334-1.885,4.223-4.219,4.223c-2.316,0-4.222-1.889-4.222-4.223V166.887z     M408.762,169.529c3.035-4.152,7.342-6.761,12.199-6.761c4.856,0,9.163,2.608,12.185,6.761c2.744,3.81,4.461,8.957,4.461,14.552    c0,5.458-1.629,10.468-4.257,14.243l-0.204,0.274c-3.021,4.187-7.328,6.761-12.185,6.761c-4.857,0-9.164-2.574-12.199-6.761    c-2.748-3.774-4.446-8.923-4.446-14.518c0-5.457,1.632-10.501,4.257-14.243L408.762,169.529z M420.961,171.211    c-2.008,0-3.931,1.27-5.388,3.261l-0.172,0.206c-1.632,2.367-2.66,5.697-2.66,9.403c0,3.81,1.081,7.208,2.832,9.61    c1.457,1.99,3.38,3.226,5.388,3.226c2.007,0,3.931-1.235,5.373-3.226l0.186-0.24c1.632-2.369,2.643-5.663,2.643-9.37    c0-3.844-1.081-7.241-2.814-9.609C424.892,172.48,422.968,171.211,420.961,171.211z M383.963,166.887    c0-2.334,1.906-4.222,4.223-4.222c2.334,0,4.222,1.888,4.222,4.222v34.389c0,2.334-1.888,4.223-4.222,4.223    c-2.316,0-4.223-1.889-4.223-4.223V166.887z M165.704,237.861c3.018-4.152,7.342-6.762,12.199-6.762    c4.857,0,9.163,2.609,12.202,6.762c2.727,3.775,4.443,8.958,4.443,14.552c0,5.457-1.628,10.468-4.257,14.243l-0.186,0.274    c-3.039,4.188-7.345,6.761-12.202,6.761c-4.857,0-9.181-2.573-12.199-6.761c-2.748-3.775-4.464-8.923-4.464-14.518    c0-5.456,1.632-10.502,4.257-14.243L165.704,237.861z M177.903,239.543c-2.008,0-3.931,1.27-5.387,3.26l-0.172,0.207    c-1.632,2.367-2.66,5.697-2.66,9.403c0,3.81,1.081,7.208,2.814,9.575c1.474,2.025,3.397,3.261,5.405,3.261    c2.007,0,3.931-1.235,5.373-3.261l0.168-0.205c1.649-2.369,2.66-5.697,2.66-9.37c0-3.844-1.081-7.241-2.815-9.61    C181.834,240.813,179.911,239.543,177.903,239.543z M140.923,235.219c0-2.334,1.888-4.221,4.205-4.221    c2.334,0,4.222,1.887,4.222,4.221v34.389c0,2.334-1.888,4.222-4.222,4.222c-2.316,0-4.205-1.888-4.205-4.222V235.219z     M226.468,237.861c3.036-4.152,7.345-6.762,12.199-6.762c4.84,0,9.164,2.609,12.185,6.762c2.745,3.775,4.46,8.958,4.46,14.552    c0,5.457-1.628,10.468-4.253,14.243l-0.207,0.309c-3.021,4.153-7.345,6.727-12.185,6.727c-4.854,0-9.163-2.573-12.199-6.761    c-2.748-3.775-4.447-8.923-4.447-14.518c0-5.456,1.614-10.502,4.257-14.243L226.468,237.861z M238.667,239.543    c-2.007,0-3.927,1.27-5.387,3.26l-0.172,0.207c-1.646,2.367-2.643,5.697-2.643,9.403c0,3.81,1.063,7.208,2.814,9.575    c1.46,2.025,3.38,3.261,5.387,3.261s3.913-1.235,5.373-3.226l0.172-0.24c1.646-2.369,2.66-5.664,2.66-9.37    c0-3.844-1.081-7.241-2.814-9.61C242.58,240.813,240.674,239.543,238.667,239.543z M201.669,235.219    c0-2.334,1.888-4.221,4.222-4.221c2.333,0,4.222,1.887,4.222,4.221v34.389c0,2.334-1.888,4.222-4.222,4.222    c-2.334,0-4.222-1.888-4.222-4.222V235.219z M287.23,237.861c3.04-4.152,7.346-6.762,12.203-6.762    c4.836,0,9.146,2.609,12.182,6.762c2.748,3.775,4.464,8.958,4.464,14.552c0,5.595-1.716,10.742-4.464,14.518    c-3.036,4.188-7.346,6.761-12.182,6.761c-4.857,0-9.163-2.573-12.203-6.761c-2.744-3.775-4.442-8.923-4.442-14.518    c0-5.456,1.61-10.502,4.235-14.243L287.23,237.861z M299.434,239.543c-2.008,0-3.931,1.27-5.391,3.26l-0.172,0.207    c-1.629,2.367-2.66,5.697-2.66,9.403c0,3.81,1.084,7.208,2.814,9.575c1.478,2.025,3.4,3.261,5.408,3.261    c2.007,0,3.927-1.235,5.387-3.261c1.751-2.367,2.814-5.766,2.814-9.575c0-3.844-1.081-7.241-2.814-9.61    C303.36,240.779,301.44,239.543,299.434,239.543z M262.437,235.219c0-2.334,1.901-4.221,4.218-4.221    c2.334,0,4.223,1.887,4.223,4.221v34.389c0,2.334-1.889,4.222-4.223,4.222c-2.316,0-4.218-1.888-4.218-4.222V235.219z     M348.012,237.861c3.039-4.152,7.346-6.762,12.186-6.762c4.857,0,9.163,2.609,12.185,6.762c2.745,3.775,4.461,8.958,4.461,14.552    c0,5.457-1.632,10.468-4.257,14.243l-0.204,0.274c-3.021,4.188-7.327,6.761-12.185,6.761c-4.84,0-9.146-2.573-12.186-6.761    c-2.762-3.775-4.46-8.923-4.46-14.518C343.552,246.819,345.25,241.637,348.012,237.861z M360.197,239.543    c-2.025,0-3.948,1.236-5.404,3.26c-1.734,2.369-2.814,5.767-2.814,9.61c0,3.81,1.08,7.208,2.814,9.575    c1.456,2.025,3.379,3.261,5.404,3.261c2.008,0,3.931-1.235,5.369-3.261l0.189-0.205c1.633-2.369,2.643-5.697,2.643-9.37    c0-3.844-1.08-7.241-2.814-9.61C364.128,240.813,362.205,239.543,360.197,239.543z M323.2,235.219    c0-2.334,1.905-4.221,4.222-4.221c2.334,0,4.219,1.887,4.219,4.221v34.389c0,2.334-1.885,4.222-4.219,4.222    c-2.316,0-4.222-1.888-4.222-4.222V235.219z M408.762,237.861c3.035-4.152,7.342-6.762,12.199-6.762    c4.856,0,9.163,2.609,12.185,6.762c2.744,3.775,4.461,8.958,4.461,14.552c0,5.457-1.629,10.468-4.257,14.243l-0.204,0.274    c-3.021,4.188-7.328,6.761-12.185,6.761c-4.857,0-9.164-2.573-12.199-6.761c-2.748-3.775-4.446-8.923-4.446-14.518    c0-5.456,1.632-10.502,4.257-14.243L408.762,237.861z M420.961,239.543c-2.008,0-3.931,1.27-5.388,3.26l-0.172,0.207    c-1.632,2.367-2.66,5.697-2.66,9.403c0,3.81,1.081,7.208,2.832,9.575c1.457,2.025,3.38,3.261,5.388,3.261    c2.007,0,3.931-1.235,5.373-3.261l0.186-0.205c1.632-2.369,2.643-5.697,2.643-9.37c0-3.844-1.081-7.241-2.814-9.61    C424.892,240.813,422.968,239.543,420.961,239.543z M383.963,235.219c0-2.334,1.906-4.221,4.223-4.221    c2.334,0,4.222,1.887,4.222,4.221v34.389c0,2.334-1.888,4.222-4.222,4.222c-2.316,0-4.223-1.888-4.223-4.222V235.219z     M165.704,306.193c3.018-4.152,7.342-6.762,12.199-6.762c4.857,0,9.163,2.609,12.202,6.762c2.727,3.775,4.443,8.958,4.443,14.553    c0,5.422-1.628,10.467-4.257,14.242l-0.186,0.274c-3.039,4.188-7.345,6.761-12.202,6.761c-4.857,0-9.181-2.573-12.199-6.761    c-2.748-3.774-4.464-8.923-4.464-14.517c0-5.457,1.632-10.503,4.257-14.244L165.704,306.193z M177.903,307.875    c-2.008,0-3.931,1.27-5.387,3.261l-0.172,0.206c-1.632,2.368-2.66,5.697-2.66,9.404c0,3.809,1.081,7.207,2.814,9.574    c1.474,2.025,3.397,3.261,5.405,3.261c2.007,0,3.931-1.235,5.373-3.261l0.168-0.205c1.649-2.368,2.66-5.697,2.66-9.369    c0-3.844-1.081-7.242-2.815-9.61C181.834,309.145,179.911,307.875,177.903,307.875z M140.923,303.551    c0-2.334,1.888-4.221,4.205-4.221c2.334,0,4.222,1.887,4.222,4.221v34.389c0,2.334-1.888,4.222-4.222,4.222    c-2.316,0-4.205-1.888-4.205-4.222V303.551z M226.468,306.193c3.036-4.152,7.345-6.762,12.199-6.762    c4.84,0,9.164,2.609,12.185,6.762c2.745,3.775,4.46,8.958,4.46,14.553c0,5.456-1.628,10.467-4.253,14.242l-0.207,0.309    c-3.021,4.153-7.345,6.727-12.185,6.727c-4.854,0-9.163-2.573-12.199-6.761c-2.748-3.774-4.447-8.923-4.447-14.517    c0-5.457,1.614-10.503,4.257-14.244L226.468,306.193z M238.667,307.875c-2.007,0-3.927,1.27-5.387,3.261l-0.172,0.206    c-1.646,2.368-2.643,5.697-2.643,9.404c0,3.809,1.063,7.207,2.814,9.574c1.46,2.025,3.38,3.261,5.387,3.261    s3.913-1.235,5.373-3.226l0.172-0.24c1.646-2.368,2.66-5.663,2.66-9.369c0-3.844-1.081-7.242-2.814-9.61    C242.58,309.145,240.674,307.875,238.667,307.875z M201.669,303.551c0-2.334,1.888-4.221,4.222-4.221    c2.333,0,4.222,1.887,4.222,4.221v34.389c0,2.334-1.888,4.222-4.222,4.222c-2.334,0-4.222-1.888-4.222-4.222V303.551z     M287.23,306.193c3.04-4.152,7.346-6.762,12.203-6.762c4.836,0,9.146,2.609,12.182,6.762c2.748,3.775,4.464,8.924,4.464,14.553    c0,5.594-1.716,10.742-4.464,14.517c-3.036,4.188-7.346,6.761-12.182,6.761c-4.857,0-9.163-2.573-12.203-6.761    c-2.744-3.774-4.442-8.923-4.442-14.517c0-5.457,1.61-10.503,4.235-14.244L287.23,306.193z M299.434,307.875    c-2.008,0-3.931,1.27-5.391,3.261l-0.172,0.206c-1.629,2.368-2.66,5.697-2.66,9.404c0,3.809,1.084,7.207,2.814,9.574    c1.478,2.025,3.4,3.261,5.408,3.261c2.007,0,3.927-1.235,5.387-3.261c1.751-2.367,2.814-5.766,2.814-9.574    c0-3.844-1.081-7.242-2.814-9.61C303.36,309.11,301.44,307.875,299.434,307.875z M262.437,303.551    c0-2.334,1.901-4.221,4.218-4.221c2.334,0,4.223,1.887,4.223,4.221v34.389c0,2.334-1.889,4.222-4.223,4.222    c-2.316,0-4.218-1.888-4.218-4.222V303.551z M348.012,306.193c3.039-4.152,7.346-6.762,12.186-6.762    c4.857,0,9.163,2.609,12.185,6.762c2.745,3.775,4.461,8.958,4.461,14.553c0,5.422-1.632,10.467-4.257,14.242l-0.204,0.274    c-3.021,4.188-7.327,6.761-12.185,6.761c-4.84,0-9.146-2.573-12.186-6.761c-2.762-3.774-4.46-8.923-4.46-14.517    C343.552,315.117,345.25,309.969,348.012,306.193z M360.197,307.875c-2.025,0-3.948,1.235-5.404,3.261    c-1.734,2.368-2.814,5.767-2.814,9.61c0,3.809,1.08,7.207,2.814,9.574c1.456,2.025,3.379,3.261,5.404,3.261    c2.008,0,3.931-1.235,5.369-3.261l0.189-0.205c1.633-2.368,2.643-5.697,2.643-9.369c0-3.844-1.08-7.242-2.814-9.61    C364.128,309.145,362.205,307.875,360.197,307.875z M323.2,303.551c0-2.334,1.905-4.221,4.222-4.221    c2.334,0,4.219,1.887,4.219,4.221v34.389c0,2.334-1.885,4.222-4.219,4.222c-2.316,0-4.222-1.888-4.222-4.222V303.551z     M408.762,306.193c3.035-4.152,7.342-6.762,12.199-6.762c4.856,0,9.163,2.609,12.185,6.762c2.744,3.775,4.461,8.958,4.461,14.553    c0,5.422-1.629,10.467-4.257,14.242l-0.204,0.274c-3.021,4.188-7.328,6.761-12.185,6.761c-4.857,0-9.164-2.573-12.199-6.761    c-2.748-3.774-4.446-8.923-4.446-14.517c0-5.457,1.632-10.503,4.257-14.244L408.762,306.193z M420.961,307.875    c-2.008,0-3.931,1.27-5.388,3.261l-0.172,0.206c-1.632,2.368-2.66,5.697-2.66,9.404c0,3.809,1.081,7.207,2.832,9.574    c1.457,2.025,3.38,3.261,5.388,3.261c2.007,0,3.931-1.235,5.373-3.261l0.186-0.205c1.632-2.368,2.643-5.697,2.643-9.369    c0-3.844-1.081-7.242-2.814-9.61C424.892,309.145,422.968,307.875,420.961,307.875z M383.963,303.551    c0-2.334,1.906-4.221,4.223-4.221c2.334,0,4.222,1.887,4.222,4.221v34.389c0,2.334-1.888,4.222-4.222,4.222    c-2.316,0-4.223-1.888-4.223-4.222V303.551z M165.704,374.525c3.018-4.152,7.342-6.761,12.199-6.761    c4.857,0,9.163,2.608,12.202,6.761c2.727,3.775,4.443,8.957,4.443,14.553c0,5.456-1.628,10.467-4.257,14.242l-0.186,0.275    c-3.039,4.187-7.345,6.761-12.202,6.761c-4.857,0-9.181-2.574-12.199-6.761c-2.748-3.776-4.464-8.924-4.464-14.518    c0-5.458,1.632-10.503,4.257-14.244L165.704,374.525z M177.903,376.207c-2.008,0-3.931,1.27-5.387,3.261l-0.172,0.206    c-1.632,2.367-2.66,5.697-2.66,9.404c0,3.809,1.081,7.207,2.814,9.574c1.474,2.025,3.397,3.261,5.405,3.261    c2.007,0,3.931-1.235,5.373-3.261l0.168-0.205c1.649-2.369,2.66-5.662,2.66-9.369c0-3.845-1.081-7.242-2.815-9.61    C181.834,377.477,179.911,376.207,177.903,376.207z M140.923,371.883c0-2.334,1.888-4.222,4.205-4.222    c2.334,0,4.222,1.888,4.222,4.222v34.389c0,2.301-1.888,4.222-4.222,4.222c-2.316,0-4.205-1.921-4.205-4.222V371.883z     M226.468,374.525c3.036-4.152,7.345-6.761,12.199-6.761c4.84,0,9.164,2.608,12.185,6.761c2.745,3.775,4.46,8.957,4.46,14.553    c0,5.456-1.628,10.467-4.253,14.242l-0.207,0.275c-3.021,4.187-7.345,6.761-12.185,6.761c-4.854,0-9.163-2.574-12.199-6.761    c-2.748-3.776-4.447-8.924-4.447-14.518c0-5.458,1.614-10.503,4.257-14.244L226.468,374.525z M238.667,376.207    c-2.007,0-3.927,1.27-5.387,3.261l-0.172,0.206c-1.646,2.367-2.643,5.697-2.643,9.404c0,3.809,1.063,7.207,2.814,9.574    c1.46,2.025,3.38,3.261,5.387,3.261s3.913-1.235,5.373-3.261l0.172-0.205c1.646-2.369,2.66-5.662,2.66-9.369    c0-3.845-1.081-7.242-2.814-9.61C242.58,377.477,240.674,376.207,238.667,376.207z M201.669,371.883    c0-2.334,1.888-4.222,4.222-4.222c2.333,0,4.222,1.888,4.222,4.222v34.389c0,2.301-1.888,4.222-4.222,4.222    c-2.334,0-4.222-1.921-4.222-4.222V371.883z M287.23,374.525c3.04-4.152,7.346-6.761,12.203-6.761    c4.836,0,9.146,2.608,12.182,6.761c2.748,3.775,4.464,8.924,4.464,14.553c0,5.594-1.716,10.741-4.464,14.518    c-3.036,4.187-7.346,6.761-12.182,6.761c-4.857,0-9.163-2.574-12.203-6.761c-2.744-3.776-4.442-8.924-4.442-14.518    c0-5.458,1.61-10.503,4.235-14.244L287.23,374.525z M299.434,376.207c-2.008,0-3.931,1.27-5.391,3.261l-0.172,0.206    c-1.629,2.367-2.66,5.697-2.66,9.404c0,3.809,1.084,7.207,2.814,9.574c1.478,2.025,3.4,3.261,5.408,3.261    c2.007,0,3.927-1.235,5.387-3.261c1.751-2.367,2.814-5.766,2.814-9.574c0-3.845-1.081-7.242-2.814-9.61    C303.36,377.477,301.44,376.207,299.434,376.207z M262.437,371.883c0-2.334,1.901-4.222,4.218-4.222    c2.334,0,4.223,1.888,4.223,4.222v34.389c0,2.301-1.889,4.222-4.223,4.222c-2.316,0-4.218-1.921-4.218-4.222V371.883z     M348.012,374.525c3.039-4.152,7.346-6.761,12.186-6.761c4.857,0,9.163,2.608,12.185,6.761c2.745,3.775,4.461,8.957,4.461,14.553    c0,5.456-1.632,10.467-4.257,14.242l-0.204,0.275c-3.021,4.187-7.327,6.761-12.185,6.761c-4.84,0-9.146-2.574-12.186-6.761    c-2.762-3.776-4.46-8.924-4.46-14.518C343.552,383.449,345.25,378.301,348.012,374.525z M360.197,376.207    c-2.025,0-3.948,1.27-5.404,3.261c-1.734,2.368-2.814,5.766-2.814,9.61c0,3.809,1.08,7.207,2.814,9.574    c1.456,2.025,3.379,3.261,5.404,3.261c2.008,0,3.931-1.235,5.369-3.261l0.189-0.205c1.633-2.369,2.643-5.662,2.643-9.369    c0-3.845-1.08-7.242-2.814-9.61C364.128,377.477,362.205,376.207,360.197,376.207z M323.2,371.883    c0-2.334,1.905-4.222,4.222-4.222c2.334,0,4.219,1.888,4.219,4.222v34.389c0,2.301-1.885,4.222-4.219,4.222    c-2.316,0-4.222-1.921-4.222-4.222V371.883z M408.762,374.525c3.035-4.152,7.342-6.761,12.199-6.761    c4.856,0,9.163,2.608,12.185,6.761c2.744,3.775,4.461,8.957,4.461,14.553c0,5.456-1.629,10.467-4.257,14.242l-0.204,0.275    c-3.021,4.187-7.328,6.761-12.185,6.761c-4.857,0-9.164-2.574-12.199-6.761c-2.748-3.776-4.446-8.924-4.446-14.518    c0-5.458,1.632-10.503,4.257-14.244L408.762,374.525z M420.961,376.207c-2.008,0-3.931,1.27-5.388,3.261l-0.172,0.206    c-1.632,2.367-2.66,5.697-2.66,9.404c0,3.809,1.081,7.207,2.832,9.574c1.457,2.025,3.38,3.261,5.388,3.261    c2.007,0,3.931-1.235,5.373-3.261l0.186-0.205c1.632-2.369,2.643-5.662,2.643-9.369c0-3.845-1.081-7.242-2.814-9.61    C424.892,377.477,422.968,376.207,420.961,376.207z M383.963,371.883c0-2.334,1.906-4.222,4.223-4.222    c2.334,0,4.222,1.888,4.222,4.222v34.389c0,2.301-1.888,4.222-4.222,4.222c-2.316,0-4.223-1.921-4.223-4.222V371.883z     M53.098,469.937c-2.333,0-4.222-1.888-4.222-4.221c0-2.334,1.888-4.223,4.222-4.223H380.84c2.316,0,4.223,1.889,4.223,4.223    c0,2.333-1.906,4.221-4.223,4.221H53.098z M245.019,485.999c-2.333,0-4.222-1.889-4.222-4.188c0-2.334,1.888-4.222,4.222-4.222    h226.788c2.315,0,4.222,1.888,4.222,4.222c0,2.299-1.906,4.188-4.222,4.188H245.019z M40.194,485.518    c-2.334,0-4.222-1.888-4.222-4.222s1.888-4.22,4.222-4.22h107.458c2.333,0,4.218,1.886,4.218,4.22s-1.885,4.222-4.218,4.222    H40.194z M94.798,406.34V36.16v-0.104l0.014-0.103l0,0v-0.103h0.018v-0.104l0,0l0.07-0.412l0,0    c0.375-1.922,2.092-3.397,4.117-3.397l251.589,0.034l-0.361-5.938L82.15,26.002V406.34H94.798z" style="fill-rule:evenodd;clip-rule:evenodd;"/></g></g><g id="Layer_1"/></svg>